<?xml version="1.0" encoding="utf-8"?>
<!-- Generator: Adobe Illustrator 26.2.1, SVG Export Plug-In . SVG Version: 6.00 Build 0)  -->
<svg version="1.1" id="图层_1" xmlns="http://www.w3.org/2000/svg" xmlns:xlink="http://www.w3.org/1999/xlink" x="0px" y="0px"
	 viewBox="0 0 112 112" style="enable-background:new 0 0 112 112;" xml:space="preserve">
<style type="text/css">
	.st0{fill:#FEF9C3;}
	.st1{fill:#FEF9C3;stroke:#E17D21;stroke-width:2;stroke-miterlimit:10;}
	.st2{fill:#DDD6FE;stroke:#4C1D95;stroke-width:3;}
	.st3{fill:none;stroke:#7C3AED;stroke-width:3;stroke-linecap:round;stroke-opacity:0.5;}
	.st4{fill:none;stroke:#000000;stroke-width:3;stroke-linecap:round;}
</style>
<rect x="0.2" class="st0" width="112" height="112"/>
<path class="st1" d="M57.3,42.5c3.1,0.3,6.1,0,8.5-1.3c2.5-1.4,4.2-3.8,4.5-7.2c0.4-3.4-0.7-6.2-2.8-8.1c-2-1.9-4.9-2.9-8-3.2
	c-3.1-0.4-6.2,0.1-8.6,1.5c-2.4,1.4-4.1,3.8-4.5,7s0.7,5.9,2.8,7.9C51.3,41,54.1,42.2,57.3,42.5z"/>
<path class="st2" d="M57.4,38C38.7,33.9,25,43.1,25,56.8c0,15,19,22.8,29,24.7c2.4,12.2,7.1,40.6,3.4,57.3
	c-3.6,16.7,3.5,51.4,7.5,66.6c15,0.9,47.4,2.6,56.7,2.6c11.6,0,24.8-12.8,29.5-12.2c3.7,0.5,22.2-3.9,30.9-6.1
	c-10.2-1.5-30.6-8.8-30.9-25.9c-0.4-21.4-43.6-45.8-50.2-48.8c-6.5-3-11.2-32.6-12.6-45.3C86.9,56.9,76.2,42.1,57.4,38z"/>
<path class="st3" d="M54,81.5c4.5,1,8.5,0,10.5-1"/>
<path class="st4" d="M33,50.5L28,48"/>
<path class="st0" d="M67.2,29.5c0.7,0.2,1.9,0.5,2.9,0c1.4-0.6,2.1-2,2.6-1.8c0.4,0.2-0.1,1.6,0.5,3.1c0.1,0.4,0.4,0.7,0.4,0.9
	c0,0.2-0.3,0-0.5,0c-1-0.6-3.9-0.8-4.9,0.7c-0.2,0.2-0.2,0.3-0.3,0.3C67.7,32.6,67.4,31,67.2,29.5z"/>
<path class="st0" d="M77.7,30.3"/>
<path class="st0" d="M67.2,33.2c0.6,0.8,1.7,1.8,3,2.2c1.9,0.6,3.4-0.2,3.7,0.4c0.2,0.6-1.1,1.4-1.3,3.1c0,0.4,0,1-0.2,1
	c-0.2,0-0.2-0.4-0.4-0.4c-0.7-1.4-3.5-3.7-5.2-3.1c-0.2,0-0.4,0.2-0.6,0.2C65.9,36.3,66.7,34.7,67.2,33.2z"/>
<path class="st0" d="M64.7,27.4c0.7-0.3,1.6-0.9,2.2-1.7c0.7-1.3,0.6-2.6,1-2.6c0.4-0.1,0.7,1,2,1.6c0.3,0.1,0.7,0.3,0.7,0.4
	c0,0.1-0.3,0.1-0.4,0.1c-1.2,0.1-3.3,1.8-3.3,3.3c0,0.1,0,0.4,0,0.4C66.5,29.1,65.5,28.3,64.7,27.4z"/>
<path class="st0" d="M60.4,24.9c0.7-0.4,1.4-1,1.5-1.7c0.2-1-0.7-1.8-0.2-2c0.5-0.2,1.2,0.5,2.9,0.4c0.3,0,0.9-0.1,0.9,0
	s-0.2,0.2-0.3,0.2c-1,0.5-2.8,2.1-2.1,3c0.2,0.1,0.2,0.2,0.2,0.3C63.4,25.4,61.8,25.1,60.4,24.9z"/>
<path class="st0" d="M55.7,26.1c0.5-0.8,0.9-2,0.7-3.2c-0.3-1.7-1.5-2.7-1.2-3.2c0.3-0.5,1.5,0.3,2.9-0.2c0.3-0.2,0.9-0.3,0.9-0.2
	s-0.2,0.3-0.2,0.3c-0.9,1-1.5,4.2-0.3,5.4c0.2,0.2,0.3,0.3,0.3,0.3C58.8,26.1,57.1,26.1,55.7,26.1z"/>
<path class="st0" d="M51.6,26.1c0-0.7,0-1.5-0.5-2.2c-0.6-0.9-1.8-1.3-1.6-1.6c0.1-0.3,1.1-0.1,2-0.9c0.1-0.1,0.5-0.5,0.5-0.3
	c0.1,0,0,0.2,0,0.3c-0.3,0.9,0.3,3,1.4,3.6c0.1,0.1,0.3,0.1,0.4,0.2C53.7,25.3,52.6,25.8,51.6,26.1z"/>
<path class="st0" d="M49.8,29.7c-0.4-0.7-1.1-1.4-2-1.9c-1.2-0.6-2.4,0-2.6-0.6c-0.1-0.4,0.8-0.9,1.1-2.2c0-0.3,0.1-0.7,0.3-0.7
	c0.1,0,0.1,0.3,0.3,0.3c0.4,1,2.3,2.9,3.6,2.6c0.1,0,0.3-0.1,0.4,0C51,27.5,50.5,28.7,49.8,29.7z"/>
<path class="st0" d="M47.9,33.2c-0.4-0.5-1-1-1.8-0.6c-1,0.1-1.9,1.4-2.1,1.2c-0.2-0.4,0.6-1.6,0.5-3.1c0-0.4-0.1-0.8,0-0.9
	c0,0,0.2,0,0.2,0.3c0.5,1.1,2.2,1.9,3.1,0.6c0.1-0.2,0.2-0.3,0.3-0.3C48.5,29.9,48.1,31.5,47.9,33.2z"/>
<path class="st4" d="M51,58l-8-3"/>
</svg>
